<svg xmlns="http://www.w3.org/2000/svg" width="64" height="64" viewBox="0 0 64 64">
  <defs>
    <linearGradient id="g" x1="0" y1="0" x2="1" y2="1">
      <stop offset="0%" stop-color="#06b6d4"/>
      <stop offset="100%" stop-color="#22d3ee"/>
    </linearGradient>
  </defs>
  <rect width="64" height="64" rx="16" fill="url(#g)"/>
  <path d="M32 15c-9.4 0-17 6.3-17 14 0 4.2 2.3 8 6 10.5-.3 2.6-1.4 5-3.2 7 3.2-.4 6.2-1.7 8.7-3.6 1.8.4 3.6.6 5.5.6 9.4 0 17-6.3 17-14S41.4 15 32 15z" fill="#0a0d10"/>
  <circle cx="25" cy="29" r="2.4" fill="#22d3ee"/>
  <circle cx="32" cy="29" r="2.4" fill="#22d3ee"/>
  <circle cx="39" cy="29" r="2.4" fill="#22d3ee"/>
</svg>
